<svg width="60" height="60" viewBox="0 0 60 60" fill="none" xmlns="http://www.w3.org/2000/svg">
<rect x="36.6445" width="32.0244" height="32.0244" transform="rotate(45 36.6445 0)" fill="#D1F4FF"/>
<path d="M47.1896 10H2.80898C1.26006 10 0 11.2602 0 12.8091V25.4955C0 27.046 1.26006 28.3073 2.80898 28.3073H4.92803L4.95488 32.4001C4.95732 32.7668 5.16484 33.1012 5.49238 33.266C5.63115 33.3358 5.78154 33.3702 5.93135 33.3702C6.13496 33.3702 6.3376 33.3065 6.50811 33.1818L13.1708 28.3072H21.0073L24.1931 32.9464C24.3752 33.2116 24.6764 33.3701 24.9981 33.3701C25.3199 33.3701 25.621 33.2116 25.8032 32.9464L28.989 28.3072H36.8281L43.488 33.1816C43.7838 33.3982 44.1761 33.4307 44.5035 33.2661C44.8311 33.1014 45.0387 32.7672 45.0413 32.4006L45.0704 28.3072H47.1899C48.7389 28.3072 49.9989 27.0458 49.9989 25.4954V12.8091C49.9986 11.2602 48.7386 10 47.1896 10V10ZM48.0455 25.4955C48.0455 25.969 47.6615 26.3542 47.1896 26.3542H44.1005C43.5639 26.3542 43.1277 26.7872 43.1239 27.3238L43.1015 30.4787L37.7238 26.5428C37.5564 26.4203 37.3545 26.3542 37.1471 26.3542H28.4747C28.1529 26.3542 27.8519 26.5127 27.6696 26.7779L24.9979 30.6686L22.3263 26.7779C22.1441 26.5127 21.843 26.3542 21.5212 26.3542H12.8516C12.6442 26.3542 12.4423 26.4202 12.2749 26.5426L6.89541 30.4785L6.87471 27.3245C6.87119 26.7876 6.43496 26.3543 5.89814 26.3543H2.80898C2.33701 26.3543 1.95312 25.969 1.95312 25.4956V12.8091C1.95312 12.3371 2.33711 11.9531 2.80898 11.9531H47.1896C47.6616 11.9531 48.0455 12.3371 48.0455 12.8091V25.4955Z" fill="#272727"/>
<path d="M46.6089 50.6035C47.0947 49.7982 47.3747 48.8554 47.3747 47.8483C47.3747 44.8966 44.9746 42.4953 42.0246 42.4953C39.073 42.4953 36.6717 44.8966 36.6717 47.8483C36.6717 48.8555 36.952 49.7984 37.4381 50.6038C36.7284 50.9302 36.0977 51.3967 35.5781 51.9643C34.8236 49.7757 33.1206 47.9876 30.9397 47.1474C31.7608 45.9727 32.2443 44.5456 32.2443 43.0068C32.2443 39.0111 28.9937 35.7603 24.998 35.7603C21.0024 35.7603 17.7518 39.0111 17.7518 43.0068C17.7518 44.5458 18.2354 45.9732 19.0567 47.148C16.8757 47.9883 15.1727 49.7762 14.4181 51.9645C13.8986 51.3968 13.268 50.9304 12.5583 50.604C13.0442 49.7986 13.3244 48.8556 13.3244 47.8484C13.3244 44.8967 10.9243 42.4954 7.97422 42.4954C5.02266 42.4954 2.62139 44.8967 2.62139 47.8484C2.62139 48.8556 2.90166 49.7985 3.38779 50.6039C1.37998 51.5275 0 53.5702 0 55.8595V59.0233C0 59.5627 0.437207 59.9999 0.976563 59.9999H20.6133C21.1526 59.9999 21.5898 59.5627 21.5898 59.0233C21.5898 58.4839 21.1526 58.0467 20.6133 58.0467H15.9458V55.8593V54.4891C15.9458 51.7345 17.9012 49.3292 20.5576 48.7272C21.7852 49.6823 23.3257 50.2533 24.998 50.2533C26.6704 50.2533 28.2111 49.6822 29.4388 48.7268C32.0948 49.3282 34.0501 51.734 34.0501 54.4891V55.8593V58.0467H29.3826C28.8433 58.0467 28.4061 58.4839 28.4061 59.0233C28.4061 59.5627 28.8433 59.9999 29.3826 59.9999H49.0221C49.5614 59.9999 49.9986 59.5627 49.9986 59.0233V55.8593C49.9988 53.5697 48.618 51.5269 46.6089 50.6035V50.6035ZM7.97442 44.4483C9.84756 44.4483 11.3715 45.9735 11.3715 47.8482C11.3715 49.7214 9.84756 51.2454 7.97442 51.2454C6.09981 51.2454 4.57471 49.7214 4.57471 47.8482C4.57471 45.9736 6.09981 44.4483 7.97442 44.4483ZM1.95332 58.0467V55.8593C1.95332 54.1202 3.15645 52.5963 4.81025 52.1602C5.69727 52.8123 6.79141 53.1985 7.97442 53.1985C9.15674 53.1985 10.2501 52.8123 11.1366 52.1604C12.79 52.5968 13.9928 54.1205 13.9928 55.8593V58.0467H1.95332ZM19.705 43.0068C19.705 40.0881 22.0795 37.7134 24.9981 37.7134C27.9168 37.7134 30.2913 40.088 30.2913 43.0068C30.2913 45.9256 27.9168 48.3001 24.9981 48.3001C22.0795 48.3001 19.705 45.9255 19.705 43.0068ZM42.0246 44.4483C43.8978 44.4483 45.4216 45.9735 45.4216 47.8482C45.4216 49.7214 43.8978 51.2454 42.0246 51.2454C40.15 51.2454 38.6248 49.7214 38.6248 47.8482C38.6248 45.9736 40.15 44.4483 42.0246 44.4483V44.4483ZM36.0034 55.8593C36.0034 54.1202 37.2065 52.5963 38.8604 52.1602C39.7474 52.8123 40.8415 53.1985 42.0245 53.1985C43.2068 53.1985 44.3003 52.8123 45.1868 52.1603C46.8417 52.5964 48.0456 54.1202 48.0456 55.8592V58.0467H36.0034V55.8593Z" fill="#272727"/>
<path d="M43.9293 15.4505H18.499C17.9597 15.4505 17.5225 15.8877 17.5225 16.4271C17.5225 16.9664 17.9597 17.4036 18.499 17.4036H43.9294C44.4687 17.4036 44.906 16.9664 44.906 16.4271C44.906 15.8877 44.4687 15.4505 43.9293 15.4505Z" fill="#272727"/>
<path d="M6.06738 17.4036H13.3281C13.8675 17.4036 14.3047 16.9664 14.3047 16.4271C14.3047 15.8877 13.8675 15.4505 13.3281 15.4505H6.06738C5.52803 15.4505 5.09082 15.8877 5.09082 16.4271C5.09082 16.9664 5.52803 17.4036 6.06738 17.4036V17.4036Z" fill="#272727"/>
<path d="M43.9288 20.901H36.6709C36.1315 20.901 35.6943 21.3382 35.6943 21.8776C35.6943 22.4169 36.1315 22.8541 36.6709 22.8541H43.9288C44.4682 22.8541 44.9054 22.4169 44.9054 21.8776C44.9054 21.3382 44.4682 20.901 43.9288 20.901V20.901Z" fill="#272727"/>
<path d="M31.4978 20.901H6.06738C5.52803 20.901 5.09082 21.3382 5.09082 21.8776C5.09082 22.4169 5.52803 22.8541 6.06738 22.8541H31.4978C32.0371 22.8541 32.4743 22.4169 32.4743 21.8776C32.4743 21.3382 32.0371 20.901 31.4978 20.901Z" fill="#272727"/>
<path d="M24.998 58.0469C24.4587 58.0469 24.0215 58.4841 24.0215 59.0234C24.0215 59.5628 24.4587 60 24.998 60H25.0036C25.543 60 25.9774 59.5628 25.9774 59.0234C25.9774 58.4841 25.5374 58.0469 24.998 58.0469Z" fill="#272727"/>
</svg>
