<svg width="65" height="60" viewBox="0 0 65 60" fill="none" xmlns="http://www.w3.org/2000/svg">
<rect x="41.6445" width="32.0244" height="32.0244" transform="rotate(45 41.6445 0)" fill="#E2FAEA"/>
<path d="M26.2358 33.7646C25.854 33.3828 25.2358 33.3828 24.854 33.7646C24.4731 34.1455 24.4731 34.7637 24.854 35.1455C25.2358 35.5264 25.854 35.5264 26.2358 35.1455C26.6167 34.7637 26.6167 34.1455 26.2358 33.7646Z" fill="#272727"/>
<path d="M38.665 21.3349C36.7568 19.4268 33.6677 19.4267 31.7594 21.3349C29.8562 23.2381 29.8561 26.3358 31.7597 28.2406C33.6636 30.1433 36.7613 30.1441 38.665 28.2404C40.573 26.3324 40.5734 23.2432 38.665 21.3349ZM37.2839 26.8592C36.142 28.0012 34.2833 28.0012 33.1408 26.8594C31.9987 25.7167 31.9986 23.8579 33.1406 22.716C34.2854 21.5712 36.1389 21.571 37.2839 22.716C38.4288 23.8607 38.429 25.7143 37.2839 26.8592Z" fill="#272727"/>
<path d="M49.714 10.286C49.5222 10.0943 49.2605 9.99044 48.9884 10.0007C48.7676 10.0086 43.5103 10.2199 37.2608 12.4288C32.253 14.197 28.0789 16.7285 24.8544 19.9531C24.1318 20.6757 23.4287 21.4419 22.7559 22.2379C19.5677 20.3611 17.0128 20.9496 15.3976 21.814C11.6788 23.8042 9.37695 29.2081 9.37695 33.0733C9.37725 33.4682 9.61523 33.8244 9.98008 33.9755C10.1009 34.0255 10.2278 34.0499 10.3536 34.0499C10.6078 34.0499 10.8575 33.9505 11.0443 33.7638C13.0056 31.8026 15.4246 31.9253 16.2148 32.0292L16.5568 32.3712C15.8838 33.9727 15.3416 35.5653 14.9439 37.1142C14.8004 37.6748 14.8488 38.2679 15.0622 38.8105C14.122 39.2438 13.2148 39.88 12.425 40.6699C9.91123 43.1837 9.40078 49.3101 9.38027 49.5697C9.35781 49.8545 9.46113 50.135 9.66318 50.337C9.84707 50.5208 10.0958 50.6231 10.3536 50.6231C10.3792 50.6231 10.4049 50.6221 10.4306 50.62C10.6901 50.5996 16.8167 50.0892 19.3304 47.5754C20.12 46.7859 20.7561 45.8788 21.1894 44.9388C21.7638 45.1647 22.3551 45.1925 22.8867 45.0563C24.4349 44.6587 26.0273 44.1167 27.6291 43.4436L27.9711 43.7856C28.0749 44.5759 28.1975 46.995 26.2364 48.956C25.9572 49.2353 25.8736 49.6553 26.0248 50.0201C26.1758 50.3851 26.5319 50.623 26.9269 50.623C30.7921 50.623 36.1959 48.3211 38.1862 44.6023C39.0505 42.9873 39.639 40.4325 37.7622 37.2441C38.5579 36.5716 39.3242 35.8685 40.047 35.1457C43.2716 31.9211 45.8031 27.7469 47.5712 22.7395C49.7802 16.4897 49.9914 11.2323 49.9993 11.0116C50.0091 10.7406 49.9057 10.4778 49.714 10.286ZM11.5603 30.9728C12.167 28.037 13.929 24.8154 16.3196 23.5359C17.9172 22.681 19.6634 22.7648 21.52 23.7811C19.9383 25.8614 18.5632 28.1026 17.417 30.4693C17.4024 30.4603 17.2266 30.2393 16.9001 30.1657C16.7658 30.1353 14.1819 29.5796 11.5603 30.9728ZM17.9494 46.1943C16.6066 47.537 13.4567 48.2452 11.4658 48.5344C11.7551 46.5434 12.4634 43.3936 13.806 42.0509C14.558 41.299 15.4299 40.7289 16.3062 40.4078L19.5926 43.6941C19.2715 44.5705 18.7014 45.4423 17.9494 46.1943ZM22.4015 43.1643C22.1189 43.2367 21.7916 43.1304 21.5482 42.8874C20.2848 41.6241 19.7906 41.1298 19.6355 40.9749C19.3512 40.6905 18.6538 39.9931 17.1135 38.4527C16.8699 38.2086 16.7637 37.8814 16.8358 37.5993C17.1486 36.3811 17.5577 35.1313 18.0552 33.8695L26.1308 41.9452C24.8688 42.4427 23.6192 42.8517 22.4015 43.1643ZM36.4644 43.6807C35.1849 46.0712 31.9634 47.8333 29.0277 48.4399C29.9637 46.6785 30.1701 44.4362 29.8281 43.0765C29.7487 42.7607 29.5426 42.6019 29.5311 42.5832C31.8976 41.4371 34.1387 40.062 36.2192 38.4802C37.2355 40.3371 37.3192 42.0834 36.4644 43.6807ZM38.6662 33.7646C37.7862 34.6445 36.8386 35.4946 35.8498 36.2912C33.4726 38.2052 30.8562 39.8265 28.0648 41.1171L18.8832 31.9357C20.1738 29.1441 21.7951 26.5277 23.709 24.1509C24.5062 23.1613 25.3562 22.2137 26.2358 21.3342C29.1289 18.441 32.8626 16.1385 37.3365 14.4811L45.5193 22.6639C43.862 27.1376 41.5595 30.8714 38.6662 33.7646ZM46.2219 20.6042L39.3961 13.7784C43.115 12.6233 46.3502 12.1908 47.9651 12.0354C47.8095 13.6505 47.3769 16.8857 46.2219 20.6042Z" fill="#272727"/>
<path d="M23.4737 50.3367C23.0921 49.9553 22.4738 49.9555 22.0925 50.3369L19.3308 53.0996C18.9495 53.481 18.9496 54.0994 19.331 54.4806C19.7125 54.8619 20.3309 54.8619 20.7121 54.4804L23.4739 51.7177C23.8551 51.3363 23.855 50.7179 23.4737 50.3367Z" fill="#272727"/>
<path d="M9.6633 36.5266C9.28205 36.1451 8.66379 36.1451 8.28225 36.5264L5.51956 39.2881C5.13811 39.6693 5.13801 40.2877 5.51926 40.6691C5.90041 41.0504 6.51868 41.0508 6.90032 40.6693L9.66301 37.9076C10.0445 37.5264 10.0446 36.908 9.6633 36.5266Z" fill="#272727"/>
<path d="M16.5685 51.7186C16.1873 51.3373 15.5689 51.3373 15.1874 51.7185L8.57223 58.3328C8.19078 58.7141 8.19078 59.3325 8.57213 59.7138C8.95328 60.0952 9.57174 60.0954 9.95318 59.7139L16.5684 53.0997C16.9498 52.7183 16.9498 52.1 16.5685 51.7186Z" fill="#272727"/>
<path d="M8.756 51.7186C8.37475 51.3373 7.7563 51.3373 7.37495 51.7185L0.759728 58.3328C0.378284 58.7141 0.378284 59.3325 0.759631 59.7138C1.14078 60.0952 1.75924 60.0954 2.14068 59.7139L8.7559 53.0997C9.13735 52.7183 9.13735 52.1 8.756 51.7186Z" fill="#272727"/>
<path d="M8.2813 43.4314C7.90005 43.0502 7.28159 43.0502 6.90024 43.4315L0.285998 50.0467C-0.0953489 50.4282 -0.0953489 51.0464 0.286096 51.4279C0.667443 51.8092 1.2858 51.8092 1.66715 51.4278L8.28139 44.8126C8.66274 44.4311 8.66274 43.8129 8.2813 43.4314Z" fill="#272727"/>
<path d="M30.3791 29.621C29.9976 29.2396 29.3795 29.2396 28.9979 29.621L27.6171 31.0018C27.2357 31.3832 27.2357 32.0015 27.6171 32.383C27.9985 32.7643 28.6168 32.7643 28.9982 32.383L30.3791 31.0021C30.7604 30.6208 30.7604 30.0024 30.3791 29.621Z" fill="#272727"/>
</svg>
