<svg width="61" height="60" viewBox="0 0 61 60" fill="none" xmlns="http://www.w3.org/2000/svg">
<rect x="37.6445" width="32.0244" height="32.0244" transform="rotate(45 37.6445 0)" fill="#D1F4FF"/>
<path d="M25 24.8438C19.4 24.8438 14.8438 29.4 14.8438 35C14.8438 40.6 19.4 45.1562 25 45.1562C30.6 45.1562 35.1562 40.6 35.1562 35C35.1562 29.4 30.6 24.8438 25 24.8438ZM16.4062 35C16.4062 34.7359 16.4227 34.4766 16.4461 34.2188H33.5547C33.5773 34.4766 33.5938 34.7359 33.5938 35C33.5938 35.2641 33.5773 35.5234 33.5539 35.7812H16.4461C16.4227 35.5234 16.4062 35.2641 16.4062 35ZM25.7812 32.6562H24.2188V29.5312H25.7812V32.6562ZM32.6453 31.0938C32.8992 31.5891 33.1063 32.1109 33.2609 32.6562H32.0312V31.0938H32.6453ZM31.6242 29.5312H31.25C30.8188 29.5312 30.4688 29.8813 30.4688 30.3125V32.6562H27.3438V28.75C27.3438 28.3188 26.9937 27.9688 26.5625 27.9688H23.4375C23.0063 27.9688 22.6562 28.3188 22.6562 28.75V32.6562H19.5312V28.3758C21.018 27.1461 22.9242 26.4062 25 26.4062C27.6625 26.4062 30.0461 27.6242 31.6242 29.5312ZM17.9688 30.0742V32.6562H16.7391C17.0055 31.7211 17.4227 30.8508 17.9688 30.0742ZM20.0742 42.0312H29.925C28.5289 43.0125 26.832 43.5938 24.9992 43.5938C23.1664 43.5938 21.4711 43.0125 20.0742 42.0312ZM31.6242 40.4688H18.3758C17.6281 39.5641 17.068 38.5023 16.7391 37.3438H33.2602C32.9313 38.5023 32.3719 39.5641 31.6242 40.4688Z" fill="#272727"/>
<path d="M48.3422 54.1125L39.332 45.1023C39.6438 44.5125 39.5586 43.7664 39.0625 43.2703L37.8234 42.0312H43.75C45.0422 42.0312 46.0938 40.9797 46.0938 39.6875V13.125C46.0938 11.8328 45.0422 10.7812 43.75 10.7812H3.125C1.83281 10.7812 0.78125 11.8328 0.78125 13.125V39.6875C0.78125 40.9797 1.83281 42.0312 3.125 42.0312H13.7531C16.1039 45.7773 20.2602 48.2812 25 48.2812C27.1711 48.2812 29.2164 47.7469 31.0273 46.8195L33.2703 49.0625C33.575 49.3672 33.975 49.5195 34.375 49.5195C34.6266 49.5195 34.875 49.4523 35.1023 49.332L44.1125 58.3422C44.6781 58.9078 45.4289 59.2188 46.2273 59.2188C47.8773 59.2188 49.2188 57.8773 49.2188 56.2273C49.2188 55.4289 48.9078 54.6781 48.3422 54.1125V54.1125ZM3.125 40.4688C2.69453 40.4688 2.34375 40.118 2.34375 39.6875V13.125C2.34375 12.6945 2.69453 12.3438 3.125 12.3438H43.75C44.1805 12.3438 44.5312 12.6945 44.5312 13.125V39.6875C44.5312 40.118 44.1805 40.4688 43.75 40.4688H37.0891C37.5359 39.4844 37.8648 38.4383 38.0609 37.3438H40.625C41.0562 37.3438 41.4062 36.9937 41.4062 36.5625V33.4375C41.4062 33.0063 41.0562 32.6562 40.625 32.6562H38.0617C36.95 26.4484 31.5227 21.7188 25 21.7188C23.0492 21.7188 21.2016 22.1523 19.5312 22.9109V19.375C19.5312 18.9438 19.1812 18.5938 18.75 18.5938H15.625C15.1938 18.5938 14.8438 18.9438 14.8438 19.375V26.4594C13.3766 28.2008 12.3563 30.3242 11.9383 32.6562H11.7188V14.6875C11.7188 14.2563 11.3687 13.9062 10.9375 13.9062H7.8125C7.38125 13.9062 7.03125 14.2563 7.03125 14.6875V32.6562H6.25C5.81875 32.6562 5.46875 33.0063 5.46875 33.4375V36.5625C5.46875 36.9937 5.81875 37.3438 6.25 37.3438H11.9383C12.1344 38.4383 12.4633 39.4844 12.9102 40.4688H3.125ZM38.2414 34.2188H39.8438V35.7812H38.2414C38.257 35.5211 38.2812 35.2641 38.2812 35C38.2812 34.7359 38.257 34.4789 38.2414 34.2188ZM17.9688 23.7531C17.4203 24.0969 16.8969 24.4742 16.4062 24.8922V20.1562H17.9688V23.7531ZM11.7586 35.7812H7.03125V34.2188H11.7586C11.743 34.4789 11.7188 34.7359 11.7188 35C11.7188 35.2641 11.743 35.5211 11.7586 35.7812ZM10.1562 32.6562H8.59375V15.4688H10.1562V32.6562ZM13.2812 35C13.2812 28.5383 18.5383 23.2812 25 23.2812C31.4617 23.2812 36.7188 28.5383 36.7188 35C36.7188 41.4617 31.4617 46.7188 25 46.7188C18.5383 46.7188 13.2812 41.4617 13.2812 35V35ZM32.4242 46.007C33.8344 45.0523 35.0523 43.8344 36.007 42.4242L37.9578 44.375L34.375 47.9578L32.4242 46.007ZM46.2273 57.6562C45.8461 57.6562 45.4875 57.5078 45.2172 57.2375L36.2609 48.2812L38.2812 46.2609L47.2375 55.2172C47.5078 55.4875 47.6562 55.8461 47.6562 56.2273C47.6562 57.0156 47.0156 57.6562 46.2273 57.6562Z" fill="#272727"/>
</svg>
