<svg width="89" height="23" viewBox="0 0 89 23" fill="none" xmlns="http://www.w3.org/2000/svg">
<path d="M0.49 0.999999H5.35V18.04H15.88V22H0.49V0.999999ZM28.4139 22.36C26.2339 22.36 24.2639 21.89 22.5039 20.95C20.7639 20.01 19.3939 18.72 18.3939 17.08C17.4139 15.42 16.9239 13.56 16.9239 11.5C16.9239 9.44 17.4139 7.59 18.3939 5.95C19.3939 4.29 20.7639 2.99 22.5039 2.05C24.2639 1.11 26.2339 0.64 28.4139 0.64C30.5939 0.64 32.5539 1.11 34.2939 2.05C36.0339 2.99 37.4039 4.29 38.4039 5.95C39.4039 7.59 39.9039 9.44 39.9039 11.5C39.9039 13.56 39.4039 15.42 38.4039 17.08C37.4039 18.72 36.0339 20.01 34.2939 20.95C32.5539 21.89 30.5939 22.36 28.4139 22.36ZM28.4139 18.22C29.6539 18.22 30.7739 17.94 31.7739 17.38C32.7739 16.8 33.5539 16 34.1139 14.98C34.6939 13.96 34.9839 12.8 34.9839 11.5C34.9839 10.2 34.6939 9.04 34.1139 8.02C33.5539 7 32.7739 6.21 31.7739 5.65C30.7739 5.07 29.6539 4.78 28.4139 4.78C27.1739 4.78 26.0539 5.07 25.0539 5.65C24.0539 6.21 23.2639 7 22.6839 8.02C22.1239 9.04 21.8439 10.2 21.8439 11.5C21.8439 12.8 22.1239 13.96 22.6839 14.98C23.2639 16 24.0539 16.8 25.0539 17.38C26.0539 17.94 27.1739 18.22 28.4139 18.22ZM57.7464 11.17H62.1864V19.69C61.0464 20.55 59.7264 21.21 58.2264 21.67C56.7264 22.13 55.2164 22.36 53.6964 22.36C51.5164 22.36 49.5564 21.9 47.8164 20.98C46.0764 20.04 44.7064 18.75 43.7064 17.11C42.7264 15.45 42.2364 13.58 42.2364 11.5C42.2364 9.42 42.7264 7.56 43.7064 5.92C44.7064 4.26 46.0864 2.97 47.8464 2.05C49.6064 1.11 51.5864 0.64 53.7864 0.64C55.6264 0.64 57.2964 0.949999 58.7964 1.57C60.2964 2.19 61.5564 3.09 62.5764 4.27L59.4564 7.15C57.9564 5.57 56.1464 4.78 54.0264 4.78C52.6864 4.78 51.4964 5.06 50.4564 5.62C49.4164 6.18 48.6064 6.97 48.0264 7.99C47.4464 9.01 47.1564 10.18 47.1564 11.5C47.1564 12.8 47.4464 13.96 48.0264 14.98C48.6064 16 49.4064 16.8 50.4264 17.38C51.4664 17.94 52.6464 18.22 53.9664 18.22C55.3664 18.22 56.6264 17.92 57.7464 17.32V11.17ZM76.8709 22.36C74.6909 22.36 72.7209 21.89 70.9609 20.95C69.2209 20.01 67.8509 18.72 66.8509 17.08C65.8709 15.42 65.3809 13.56 65.3809 11.5C65.3809 9.44 65.8709 7.59 66.8509 5.95C67.8509 4.29 69.2209 2.99 70.9609 2.05C72.7209 1.11 74.6909 0.64 76.8709 0.64C79.0509 0.64 81.0109 1.11 82.7509 2.05C84.4909 2.99 85.8609 4.29 86.8609 5.95C87.8609 7.59 88.3609 9.44 88.3609 11.5C88.3609 13.56 87.8609 15.42 86.8609 17.08C85.8609 18.72 84.4909 20.01 82.7509 20.95C81.0109 21.89 79.0509 22.36 76.8709 22.36ZM76.8709 18.22C78.1109 18.22 79.2309 17.94 80.2309 17.38C81.2309 16.8 82.0109 16 82.5709 14.98C83.1509 13.96 83.4409 12.8 83.4409 11.5C83.4409 10.2 83.1509 9.04 82.5709 8.02C82.0109 7 81.2309 6.21 80.2309 5.65C79.2309 5.07 78.1109 4.78 76.8709 4.78C75.6309 4.78 74.5109 5.07 73.5109 5.65C72.5109 6.21 71.7209 7 71.1409 8.02C70.5809 9.04 70.3009 10.2 70.3009 11.5C70.3009 12.8 70.5809 13.96 71.1409 14.98C71.7209 16 72.5109 16.8 73.5109 17.38C74.5109 17.94 75.6309 18.22 76.8709 18.22Z" fill="white"/>
</svg>
