<svg width="63" height="57" viewBox="0 0 63 57" fill="none" xmlns="http://www.w3.org/2000/svg">
<rect x="39.6445" width="32.0244" height="32.0244" transform="rotate(45 39.6445 0)" fill="#FFFFCE"/>
<path d="M11.4885 13.0943C11.2425 12.5122 10.396 12.4889 10.1282 13.0664C9.99433 13.3556 10.0634 13.7073 10.2976 13.9244C10.5353 14.1441 10.8984 14.1826 11.178 14.0201C11.4931 13.8366 11.6305 13.4315 11.4885 13.0943Z" fill="#272727"/>
<path d="M16.5435 13.0941C16.2918 12.499 15.4224 12.4929 15.171 13.0941C15.044 13.3978 15.1401 13.7586 15.3972 13.9623C15.636 14.1516 15.977 14.1722 16.238 14.0169C16.5496 13.8315 16.6847 13.4294 16.5435 13.0941Z" fill="#272727"/>
<path d="M14.0157 13.0943C13.9009 12.8223 13.6331 12.6388 13.3367 12.6358C13.0094 12.6323 12.7145 12.8513 12.6184 13.163C12.5295 13.4517 12.6337 13.7756 12.8694 13.9625C13.117 14.1586 13.4721 14.1723 13.7357 14.0011C14.031 13.8084 14.1531 13.4201 14.0157 13.0943Z" fill="#272727"/>
<path d="M46.6369 9.5625H9.9525C8.09818 9.5625 6.58984 11.0712 6.58984 12.9252V25.9642C6.58984 26.3746 6.92249 26.7073 7.33295 26.7073C7.74341 26.7073 8.07643 26.3746 8.07643 25.9642V16.7975H30.1849V26.4685C30.1849 26.7519 30.3463 27.0109 30.6011 27.1357C30.7048 27.1868 30.8166 27.2116 30.928 27.2116C31.0897 27.2116 31.2507 27.1589 31.3835 27.0559L40.7718 19.7805C40.9282 19.6596 41.0297 19.4811 41.0541 19.285C41.0789 19.0889 41.024 18.8913 40.9023 18.7353C40.34 18.0155 39.7106 17.3685 39.0274 16.7975H48.513V45.6453C48.513 46.6795 47.6715 47.5214 46.6369 47.5214H25.1304V44.245C26.1581 44.5105 27.2182 44.6451 28.2947 44.6451C35.2623 44.6451 40.9309 38.9769 40.9309 32.0097C40.9309 31.2082 40.8554 30.4056 40.7062 29.6251C40.6292 29.2219 40.2393 28.9579 39.8365 29.0346C39.4332 29.1117 39.1689 29.5012 39.2459 29.9044C39.3775 30.5933 39.4443 31.3017 39.4443 32.0097C39.4443 35.4544 37.8738 38.5393 35.411 40.5859L29.3178 32.1558L37.5335 25.7673C37.9631 26.4013 38.3258 27.0773 38.6158 27.7845C38.7714 28.1645 39.2055 28.3461 39.5854 28.1904C39.9654 28.0344 40.147 27.6003 39.9913 27.2204C39.5561 26.1595 38.977 25.1612 38.2698 24.2529C38.0176 23.929 37.5507 23.8707 37.2272 24.1228L29.0378 30.4903V20.1178C29.0378 19.7073 28.7052 19.3743 28.2947 19.3743C21.3272 19.3743 15.6593 25.0425 15.6593 32.0097C15.6593 35.7943 17.3156 39.3145 20.2167 41.7265V47.5214H18.3422V42.8618C18.3422 42.4513 18.0095 42.1183 17.5987 42.1183H14.1719C13.7611 42.1183 13.4285 42.4513 13.4285 42.8618V47.5214H11.5036V28.4422C11.5036 28.0314 11.1709 27.6987 10.7605 27.6987H7.33333C6.92287 27.6987 6.59023 28.0314 6.59023 28.4422V55.707C6.59023 56.1174 6.92287 56.4501 7.33333 56.4501H10.7605C11.1709 56.4501 11.5036 56.1174 11.5036 55.707V49.008H13.4285V55.707C13.4285 56.1174 13.7611 56.4501 14.1719 56.4501H17.5987C18.0095 56.4501 18.3422 56.1174 18.3422 55.707V49.008H20.2167V55.707C20.2167 56.1174 20.5493 56.4501 20.9602 56.4501H24.3869C24.7978 56.4501 25.1304 56.1174 25.1304 55.707V49.008H46.6369C48.4909 49.008 49.9996 47.4997 49.9996 45.6453V12.9252C49.9996 11.0712 48.4909 9.5625 46.6369 9.5625V9.5625ZM8.07681 54.9635V29.1853H10.017V54.9635H8.07681ZM14.915 54.9635V43.6052H16.8556V54.9635H14.915ZM17.1459 32.0097C17.1459 26.1122 21.7491 21.2694 27.5512 20.8853V32.0097C27.5512 32.1692 27.6039 32.3198 27.6939 32.4442L27.6927 32.4453L34.2067 41.4579C32.492 42.5348 30.4649 43.1585 28.2947 43.1585C27.2132 43.1585 26.1516 43.0044 25.1304 42.7019V36.9158C25.1304 36.5049 24.7978 36.1723 24.3869 36.1723H20.9602C20.5493 36.1723 20.2167 36.5049 20.2167 36.9158V39.6959C18.2487 37.6349 17.1459 34.9104 17.1459 32.0097V32.0097ZM21.7033 54.9635V37.6589H23.6438V54.9635H21.7033ZM31.6715 24.9521V15.3849C34.6004 15.5756 37.2993 16.8905 39.252 19.0779L31.6715 24.9521ZM36.8072 15.3109C35.0231 14.3759 33.0165 13.8739 30.928 13.8739C30.5175 13.8739 30.1849 14.2069 30.1849 14.6174V15.3109H8.07643V12.9252C8.07643 11.8906 8.91795 11.0491 9.9525 11.0491H46.6369C47.6715 11.0491 48.513 11.8906 48.513 12.9252V15.3109H36.8072Z" fill="#272727"/>
<path d="M4.17023 32.7529H0.743484C0.332642 32.7529 0 33.086 0 33.4964V55.7071C0 56.1176 0.332642 56.4502 0.743484 56.4502H4.17023C4.58069 56.4502 4.91371 56.1176 4.91371 55.7071V49.7001C4.91371 49.2896 4.58069 48.9566 4.17023 48.9566C3.75977 48.9566 3.42674 49.2896 3.42674 49.7001V54.9636H1.48659V34.2395H3.42674V47.2221C3.42674 47.6325 3.75977 47.9656 4.17023 47.9656C4.58069 47.9656 4.91371 47.6325 4.91371 47.2221V33.4964C4.91371 33.086 4.58069 32.7529 4.17023 32.7529V32.7529Z" fill="#272727"/>
<path d="M46.6858 43.9265H38.807C38.3965 43.9265 38.0635 44.2595 38.0635 44.67C38.0635 45.0805 38.3965 45.4135 38.807 45.4135H46.6858C47.0963 45.4135 47.4289 45.0805 47.4289 44.67C47.4289 44.2595 47.0963 43.9265 46.6858 43.9265Z" fill="#272727"/>
<path d="M46.6859 40.7805H41.1855C40.775 40.7805 40.4424 41.1135 40.4424 41.524C40.4424 41.9345 40.775 42.2671 41.1855 42.2671H46.6859C47.0964 42.2671 47.429 41.9345 47.429 41.524C47.429 41.1135 47.0964 40.7805 46.6859 40.7805V40.7805Z" fill="#272727"/>
</svg>
