<svg width="5" height="8" viewBox="0 0 5 8" fill="none" xmlns="http://www.w3.org/2000/svg">
<path d="M2.5 0C1.119 0 0 1.1145 0 2.495C0 4.882 2.5 7.995 2.5 7.995C2.5 7.995 5 4.8815 5 2.495C5 1.115 3.881 0 2.5 0ZM2.5 3.8755C2.14196 3.8755 1.79858 3.73327 1.54541 3.48009C1.29223 3.22692 1.15 2.88354 1.15 2.5255C1.15 2.16746 1.29223 1.82408 1.54541 1.57091C1.79858 1.31773 2.14196 1.1755 2.5 1.1755C2.85804 1.1755 3.20142 1.31773 3.45459 1.57091C3.70777 1.82408 3.85 2.16746 3.85 2.5255C3.85 2.88354 3.70777 3.22692 3.45459 3.48009C3.20142 3.73327 2.85804 3.8755 2.5 3.8755Z" fill="#EAA124"/>
</svg>
