<svg width="10" height="11" viewBox="0 0 10 11" fill="none" xmlns="http://www.w3.org/2000/svg">
<path d="M9.86105 9.14688L8.45116 10.6853C8.24304 10.9201 7.96718 10.9996 7.69853 11C6.51043 10.9608 5.38742 10.3189 4.46535 9.6597C2.95183 8.4485 1.56312 6.94668 0.691535 5.13179C0.357252 4.37075 -0.0349818 3.39971 0.00249317 2.55025C0.00583483 2.2307 0.0841182 1.91708 0.28871 1.7111L1.69859 0.161011C1.99136 -0.112916 2.27448 -0.0182063 2.46183 0.300867L3.59609 2.6668C3.71548 2.94709 3.64699 3.24741 3.46888 3.44769L2.94944 4.01878C2.91738 4.06709 2.89696 4.12209 2.89644 4.18195C3.09563 5.03007 3.69905 5.81178 4.23212 6.34974C4.76518 6.88771 5.33816 7.61655 6.08193 7.7891C6.17386 7.8173 6.28647 7.82721 6.35224 7.75996L6.95649 7.08398C7.16479 6.91032 7.46554 6.82543 7.68792 6.96744H7.69852L9.74443 8.29608C10.0448 8.50317 10.0761 8.90339 9.86105 9.14688V9.14688Z" fill="#EAA124"/>
</svg>
