<svg width="40" height="40" viewBox="0 0 40 40" fill="none" xmlns="http://www.w3.org/2000/svg">
<rect x="24.4294" width="21.3496" height="21.3496" transform="rotate(45 24.4294 0)" fill="#D1F4FF"/>
<path d="M31.46 6.6665H1.87289C0.840275 6.6665 0.000236511 7.50661 0.000236511 8.53923V16.9968C0.000236511 18.0305 0.840275 18.8714 1.87289 18.8714H3.28559L3.30349 21.5999C3.30512 21.8444 3.44347 22.0673 3.66182 22.1772C3.75434 22.2237 3.8546 22.2466 3.95447 22.2466C4.09021 22.2466 4.2253 22.2042 4.33897 22.1211L8.78077 18.8713H14.0051L16.1289 21.9641C16.2504 22.1409 16.4511 22.2466 16.6657 22.2466C16.8802 22.2466 17.0809 22.1409 17.2024 21.9641L19.3262 18.8713H24.5523L28.9922 22.1209C29.1894 22.2653 29.4509 22.2869 29.6692 22.1772C29.8876 22.0674 30.026 21.8446 30.0278 21.6002L30.0472 18.8713H31.4602C32.4928 18.8713 33.3329 18.0304 33.3329 16.9968V8.53923C33.3327 7.50661 32.4926 6.6665 31.46 6.6665V6.6665ZM32.0306 16.9968C32.0306 17.3125 31.7746 17.5693 31.46 17.5693H29.4006C29.0428 17.5693 28.7521 17.858 28.7495 18.2157L28.7345 20.319L25.1495 17.695C25.0379 17.6134 24.9032 17.5693 24.7649 17.5693H18.9834C18.7689 17.5693 18.5681 17.675 18.4467 17.8518L16.6655 20.4455L14.8844 17.8518C14.763 17.675 14.5622 17.5693 14.3477 17.5693H8.56794C8.42973 17.5693 8.29509 17.6133 8.1835 17.6949L4.59718 20.3188L4.58337 18.2162C4.58103 17.8582 4.29021 17.5694 3.93233 17.5694H1.87289C1.55824 17.5694 1.30232 17.3125 1.30232 16.9969V8.53923C1.30232 8.22458 1.55831 7.96859 1.87289 7.96859H31.46C31.7746 7.96859 32.0306 8.22458 32.0306 8.53923V16.9968Z" fill="black"/>
<path d="M31.0726 33.7353C31.3965 33.1984 31.5831 32.5699 31.5831 31.8985C31.5831 29.9307 29.9831 28.3298 28.0164 28.3298C26.0486 28.3298 24.4478 29.9307 24.4478 31.8985C24.4478 32.57 24.6346 33.1986 24.9587 33.7355C24.4856 33.9531 24.0651 34.2641 23.7188 34.6425C23.2158 33.1835 22.0804 31.9913 20.6265 31.4313C21.1739 30.6481 21.4962 29.6967 21.4962 28.6708C21.4962 26.007 19.3291 23.8398 16.6654 23.8398C14.0016 23.8398 11.8345 26.007 11.8345 28.6708C11.8345 29.6968 12.157 30.6484 12.7045 31.4316C11.2505 31.9919 10.1151 33.1838 9.61204 34.6426C9.26576 34.2642 8.84531 33.9533 8.3722 33.7356C8.69616 33.1987 8.88294 32.5701 8.88294 31.8986C8.88294 29.9308 7.28288 28.3299 5.31615 28.3299C3.34844 28.3299 1.74759 29.9308 1.74759 31.8986C1.74759 32.5701 1.93444 33.1986 2.25853 33.7355C0.919987 34.3513 0 35.7131 0 37.2393V39.3485C0 39.7081 0.291471 39.9995 0.651042 39.9995H13.7422C14.1018 39.9995 14.3932 39.7081 14.3932 39.3485C14.3932 38.9889 14.1018 38.6975 13.7422 38.6975H10.6305V37.2392V36.3257C10.6305 34.4893 11.9341 32.8857 13.7051 32.4844C14.5234 33.1212 15.5505 33.5018 16.6653 33.5018C17.7803 33.5018 18.8074 33.1211 19.6258 32.4842C21.3966 32.8851 22.7001 34.489 22.7001 36.3257V37.2392V38.6975H19.5884C19.2288 38.6975 18.9374 38.9889 18.9374 39.3485C18.9374 39.7081 19.2288 39.9995 19.5884 39.9995H32.6814C33.041 39.9995 33.3324 39.7081 33.3324 39.3485V37.2392C33.3326 35.7128 32.412 34.3509 31.0726 33.7353ZM5.31628 29.6318C6.56504 29.6318 7.58099 30.6486 7.58099 31.8984C7.58099 33.1473 6.56504 34.1632 5.31628 34.1632C4.06654 34.1632 3.0498 33.1473 3.0498 31.8984C3.0498 30.6487 4.06654 29.6318 5.31628 29.6318ZM1.30221 38.6975V37.2392C1.30221 36.0798 2.1043 35.0639 3.20684 34.7731C3.79818 35.2078 4.5276 35.4653 5.31628 35.4653C6.10449 35.4653 6.8334 35.2078 7.42441 34.7732C8.52669 35.0642 9.32852 36.0799 9.32852 37.2392V38.6975H1.30221ZM13.1367 28.6708C13.1367 26.725 14.7197 25.1419 16.6654 25.1419C18.6112 25.1419 20.1942 26.7249 20.1942 28.6708C20.1942 30.6167 18.6112 32.1997 16.6654 32.1997C14.7197 32.1997 13.1367 30.6166 13.1367 28.6708ZM28.0164 29.6318C29.2652 29.6318 30.2811 30.6486 30.2811 31.8984C30.2811 33.1473 29.2652 34.1632 28.0164 34.1632C26.7667 34.1632 25.7499 33.1473 25.7499 31.8984C25.7499 30.6487 26.7667 29.6318 28.0164 29.6318ZM24.0023 37.2392C24.0023 36.0798 24.8044 35.0639 25.9069 34.7731C26.4982 35.2078 27.2277 35.4653 28.0163 35.4653C28.8046 35.4653 29.5335 35.2078 30.1245 34.7732C31.2278 35.0639 32.0304 36.0798 32.0304 37.2391V38.6975H24.0023V37.2392Z" fill="black"/>
<path d="M29.286 10.3003H12.3325C11.9729 10.3003 11.6814 10.5918 11.6814 10.9513C11.6814 11.3109 11.9729 11.6024 12.3325 11.6024H29.2861C29.6456 11.6024 29.9371 11.3109 29.9371 10.9513C29.9371 10.5918 29.6456 10.3003 29.286 10.3003Z" fill="black"/>
<path d="M4.04481 11.6024H8.8853C9.24488 11.6024 9.53635 11.3109 9.53635 10.9513C9.53635 10.5918 9.24488 10.3003 8.8853 10.3003H4.04481C3.68524 10.3003 3.39377 10.5918 3.39377 10.9513C3.39377 11.3109 3.68524 11.6024 4.04481 11.6024Z" fill="black"/>
<path d="M29.286 13.9341H24.4474C24.0878 13.9341 23.7964 14.2256 23.7964 14.5851C23.7964 14.9447 24.0878 15.2362 24.4474 15.2362H29.286C29.6456 15.2362 29.9371 14.9447 29.9371 14.5851C29.9371 14.2256 29.6456 13.9341 29.286 13.9341Z" fill="black"/>
<path d="M20.9984 13.9341H4.04481C3.68524 13.9341 3.39377 14.2256 3.39377 14.5851C3.39377 14.9447 3.68524 15.2362 4.04481 15.2362H20.9984C21.358 15.2362 21.6494 14.9447 21.6494 14.5851C21.6494 14.2256 21.358 13.9341 20.9984 13.9341Z" fill="black"/>
<path d="M16.6655 38.6978C16.3059 38.6978 16.0144 38.9892 16.0144 39.3488C16.0144 39.7084 16.3059 39.9998 16.6655 39.9998H16.6692C17.0287 39.9998 17.3184 39.7084 17.3184 39.3488C17.3184 38.9892 17.025 38.6978 16.6655 38.6978Z" fill="black"/>
</svg>
