<svg width="40" height="40" viewBox="0 0 40 40" fill="none" xmlns="http://www.w3.org/2000/svg">
<rect x="24.4297" width="21.3496" height="21.3496" transform="rotate(45 24.4297 0)" fill="#D1F4FF"/>
<path d="M31.4598 6.6665H1.87266C0.840039 6.6665 0 7.50661 0 8.53923V16.9968C0 18.0305 0.840039 18.8714 1.87266 18.8714H3.28535L3.30325 21.5999C3.30488 21.8444 3.44323 22.0673 3.66159 22.1772C3.7541 22.2237 3.85436 22.2466 3.95423 22.2466C4.08997 22.2466 4.22506 22.2042 4.33874 22.1211L8.78053 18.8713H14.0049L16.1287 21.9641C16.2501 22.1409 16.4509 22.2466 16.6654 22.2466C16.8799 22.2466 17.0807 22.1409 17.2021 21.9641L19.326 18.8713H24.5521L28.992 22.1209C29.1892 22.2653 29.4507 22.2869 29.669 22.1772C29.8874 22.0674 30.0258 21.8446 30.0275 21.6002L30.0469 18.8713H31.46C32.4926 18.8713 33.3326 18.0304 33.3326 16.9968V8.53923C33.3324 7.50661 32.4924 6.6665 31.4598 6.6665V6.6665ZM32.0303 16.9968C32.0303 17.3125 31.7743 17.5693 31.4598 17.5693H29.4003C29.0426 17.5693 28.7518 17.858 28.7493 18.2157L28.7343 20.319L25.1492 17.695C25.0376 17.6134 24.903 17.5693 24.7647 17.5693H18.9831C18.7686 17.5693 18.5679 17.675 18.4464 17.8518L16.6653 20.4455L14.8842 17.8518C14.7628 17.675 14.562 17.5693 14.3475 17.5693H8.56771C8.42949 17.5693 8.29486 17.6133 8.18327 17.6949L4.59694 20.3188L4.58314 18.2162C4.58079 17.8582 4.28997 17.5694 3.9321 17.5694H1.87266C1.55801 17.5694 1.30208 17.3125 1.30208 16.9969V8.53923C1.30208 8.22458 1.55807 7.96859 1.87266 7.96859H31.4598C31.7744 7.96859 32.0303 8.22458 32.0303 8.53923V16.9968Z" fill="black"/>
<path d="M31.0726 33.7353C31.3965 33.1984 31.5831 32.5699 31.5831 31.8985C31.5831 29.9307 29.9831 28.3298 28.0164 28.3298C26.0486 28.3298 24.4478 29.9307 24.4478 31.8985C24.4478 32.57 24.6346 33.1986 24.9587 33.7355C24.4856 33.9531 24.0651 34.2641 23.7188 34.6425C23.2158 33.1835 22.0804 31.9913 20.6265 31.4312C21.1739 30.6481 21.4962 29.6967 21.4962 28.6708C21.4962 26.007 19.3291 23.8398 16.6654 23.8398C14.0016 23.8398 11.8345 26.007 11.8345 28.6708C11.8345 29.6968 12.157 30.6484 12.7045 31.4316C11.2505 31.9919 10.1151 33.1838 9.61204 34.6426C9.26576 34.2642 8.84531 33.9533 8.3722 33.7356C8.69616 33.1987 8.88294 32.5701 8.88294 31.8986C8.88294 29.9308 7.28288 28.3299 5.31615 28.3299C3.34844 28.3299 1.74759 29.9308 1.74759 31.8986C1.74759 32.5701 1.93444 33.1986 2.25853 33.7355C0.919987 34.3513 0 35.7131 0 37.2393V39.3485C0 39.7081 0.291471 39.9995 0.651042 39.9995H13.7422C14.1018 39.9995 14.3932 39.7081 14.3932 39.3485C14.3932 38.9889 14.1018 38.6975 13.7422 38.6975H10.6305V37.2392V36.3257C10.6305 34.4893 11.9341 32.8857 13.7051 32.4844C14.5234 33.1212 15.5505 33.5018 16.6653 33.5018C17.7803 33.5018 18.8074 33.1211 19.6258 32.4842C21.3966 32.8851 22.7001 34.489 22.7001 36.3257V37.2392V38.6975H19.5884C19.2288 38.6975 18.9374 38.9889 18.9374 39.3485C18.9374 39.7081 19.2288 39.9995 19.5884 39.9995H32.6814C33.041 39.9995 33.3324 39.7081 33.3324 39.3485V37.2392C33.3326 35.7128 32.412 34.3509 31.0726 33.7353V33.7353ZM5.31628 29.6318C6.56504 29.6318 7.58099 30.6486 7.58099 31.8984C7.58099 33.1473 6.56504 34.1632 5.31628 34.1632C4.06654 34.1632 3.0498 33.1473 3.0498 31.8984C3.0498 30.6487 4.06654 29.6318 5.31628 29.6318ZM1.30221 38.6975V37.2392C1.30221 36.0798 2.1043 35.0639 3.20684 34.7731C3.79818 35.2078 4.5276 35.4653 5.31628 35.4653C6.10449 35.4653 6.8334 35.2078 7.42441 34.7732C8.52669 35.0642 9.32852 36.0799 9.32852 37.2392V38.6975H1.30221ZM13.1367 28.6708C13.1367 26.725 14.7197 25.1419 16.6654 25.1419C18.6112 25.1419 20.1942 26.7249 20.1942 28.6708C20.1942 30.6167 18.6112 32.1997 16.6654 32.1997C14.7197 32.1997 13.1367 30.6166 13.1367 28.6708ZM28.0164 29.6318C29.2652 29.6318 30.2811 30.6486 30.2811 31.8984C30.2811 33.1473 29.2652 34.1632 28.0164 34.1632C26.7667 34.1632 25.7499 33.1473 25.7499 31.8984C25.7499 30.6487 26.7667 29.6318 28.0164 29.6318V29.6318ZM24.0023 37.2392C24.0023 36.0798 24.8044 35.0639 25.9069 34.7731C26.4982 35.2078 27.2277 35.4653 28.0163 35.4653C28.8046 35.4653 29.5335 35.2078 30.1245 34.7732C31.2278 35.0639 32.0304 36.0798 32.0304 37.2391V38.6975H24.0023V37.2392Z" fill="black"/>
<path d="M29.2862 10.3003H12.3327C11.9731 10.3003 11.6816 10.5918 11.6816 10.9513C11.6816 11.3109 11.9731 11.6024 12.3327 11.6024H29.2863C29.6458 11.6024 29.9373 11.3109 29.9373 10.9513C29.9373 10.5918 29.6458 10.3003 29.2862 10.3003Z" fill="black"/>
<path d="M4.0446 11.6024H8.88509C9.24466 11.6024 9.53613 11.3109 9.53613 10.9513C9.53613 10.5918 9.24466 10.3003 8.88509 10.3003H4.0446C3.68503 10.3003 3.39355 10.5918 3.39355 10.9513C3.39355 11.3109 3.68503 11.6024 4.0446 11.6024V11.6024Z" fill="black"/>
<path d="M29.2855 13.9341H24.4469C24.0874 13.9341 23.7959 14.2256 23.7959 14.5851C23.7959 14.9447 24.0874 15.2362 24.4469 15.2362H29.2855C29.6451 15.2362 29.9366 14.9447 29.9366 14.5851C29.9366 14.2256 29.6451 13.9341 29.2855 13.9341V13.9341Z" fill="black"/>
<path d="M20.9982 13.9341H4.0446C3.68503 13.9341 3.39355 14.2256 3.39355 14.5851C3.39355 14.9447 3.68503 15.2362 4.0446 15.2362H20.9982C21.3577 15.2362 21.6492 14.9447 21.6492 14.5851C21.6492 14.2256 21.3577 13.9341 20.9982 13.9341Z" fill="black"/>
<path d="M16.6657 38.6978C16.3061 38.6978 16.0146 38.9892 16.0146 39.3488C16.0146 39.7084 16.3061 39.9998 16.6657 39.9998H16.6694C17.029 39.9998 17.3186 39.7084 17.3186 39.3488C17.3186 38.9892 17.0253 38.6978 16.6657 38.6978Z" fill="black"/>
</svg>
