<svg width="18" height="19" viewBox="0 0 18 19" fill="none" xmlns="http://www.w3.org/2000/svg">
<path d="M12.375 7.69404C12.375 8.588 12.0194 9.44535 11.3865 10.0775C10.7535 10.7096 9.8951 11.0647 9 11.0647C8.10489 11.0647 7.24645 10.7096 6.61351 10.0775C5.98058 9.44535 5.625 8.588 5.625 7.69404C5.625 6.80008 5.98058 5.94274 6.61351 5.31061C7.24645 4.67849 8.10489 4.32336 9 4.32336C9.89511 4.32336 10.7536 4.67849 11.3865 5.31061C12.0194 5.94274 12.375 6.80008 12.375 7.69404Z" fill="#EAA124"/>
<path fill-rule="evenodd" clip-rule="evenodd" d="M-7.86805e-07 9.94111C-5.78131e-07 7.55722 0.948211 5.27097 2.63604 3.5853C4.32387 1.89963 6.61305 0.952637 9 0.952638C11.3869 0.952638 13.6761 1.89964 15.364 3.5853C17.0518 5.27097 18 7.55722 18 9.94112C18 12.325 17.0518 14.6113 15.364 16.2969C13.6761 17.9826 11.3869 18.9296 9 18.9296C6.61305 18.9296 4.32386 17.9826 2.63604 16.2969C0.94821 14.6113 -9.95479e-07 12.325 -7.86805e-07 9.94111ZM9 2.0762C7.517 2.07628 6.06416 2.49457 4.8087 3.28293C3.55324 4.07129 2.54619 5.19768 1.90346 6.53245C1.26073 7.86722 1.00843 9.35612 1.17562 10.8278C1.34281 12.2994 1.92268 13.694 2.8485 14.8511C3.64725 13.5657 5.40562 12.1882 9 12.1882C12.5944 12.1882 14.3516 13.5646 15.1515 14.8511C16.0773 13.694 16.6572 12.2994 16.8244 10.8278C16.9916 9.35612 16.7393 7.86722 16.0965 6.53245C15.4538 5.19768 14.4468 4.07129 13.1913 3.28293C11.9358 2.49457 10.483 2.07628 9 2.0762Z" fill="#EAA124"/>
</svg>
